inDegrees=yes
name=ik_Xsens_quaternion
DataType=double
version=3
OpenSimVersion=4.4-2022-07-23-0e9fedc
endheader
time	pelvis_tilt	pelvis_list	pelvis_rotation	pelvis_tx	pelvis_ty	pelvis_tz	hip_flexion_r	hip_adduction_r	hip_rotation_r	knee_angle_r	knee_angle_r_beta	ankle_angle_r	subtalar_angle_r	mtp_angle_r	hip_flexion_l	hip_adduction_l	hip_rotation_l	knee_angle_l	knee_angle_l_beta	ankle_angle_l	subtalar_angle_l	mtp_angle_l	lumbar_extension	lumbar_bending	lumbar_rotation	arm_flex_r	arm_add_r	arm_rot_r	elbow_flex_r	pro_sup_r	wrist_flex_r	wrist_dev_r	arm_flex_l	arm_add_l	arm_rot_l	elbow_flex_l	pro_sup_l	wrist_flex_l	wrist_dev_l
15.11666666666667	0	0	0	0	0.93	0	0	0	0	6.088404306613075e-39	3.441903106673403e-40	0	0	0	0	0	0	1.122178740000995e-38	1.382692402377694e-40	0	0	0	0	0	0	8677.064840674262	-1279.473498545853	4690.625688946125	-1018.661285937263	5179.731060277977	0	0	-4366.157322408163	-1423.003196422314	4059.059328818586	177.4844905967248	4502.2808504269	0	0
15.13333333333333	0	0	0	0	0.93	0	0	0	0	0	0	0	0	0	0	0	0	0	0	0	0	0	0	0	0	8676.542905441805	-1280.242464379666	4691.036141172916	-1019.81251249514	5178.266229714942	0	0	-4365.878446573916	-1423.634359062995	4058.160929146328	179.3649478602377	4501.036649998611	0	0
15.15	0	0	0	0	0.93	0	0	0	0	2.941450427470862e-39	0	0	0	0	0	0	0	9.547283111685211e-39	0	0	0	0	0	0	0	8676.031503473849	-1280.94947854979	4691.427228254155	-1020.83663233906	5177.013813644907	0	0	-4365.663895693411	-1424.249643243065	4057.34381598692	181.1360264896863	4499.842298621101	0	0
15.16666666666667	0	0	0	0	0.93	0	0	0	0	0	9.568936970032529e-41	0	0	0	0	0	0	0	-2.942726069472232e-42	0	0	0	0	0	0	8675.619795278433	-1281.589031304518	4691.750360005341	-1021.675073433825	5175.969382989162	0	0	-4365.474077085266	-1424.913947573516	4056.442345512442	183.038134962693	4498.462385844352	0	0
15.18333333333333	0	0	0	0	0.93	0	0	0	0	0	0	0	0	0	0	0	0	0	0	0	0	0	0	0	0	8675.232593377561	-1282.231533268842	4692.045088162539	-1022.466656789482	5174.975416797356	0	0	-4365.330408129649	-1425.624035098644	4055.509536785418	184.9723005726636	4497.005809440424	0	0
15.2	-1.200551357098235e-26	-1.60666114468453e-16	-3.435843077693407e-26	-6.242306213814218e-24	0.93	7.215817709038388e-23	-1.629125830646789e-30	-4.435160891079938e-21	4.014869798597609e-29	2.919814011088504e-15	5.096036803853576e-17	-4.087133234163692e-24	-6.696532275870018e-21	3.984544854078736e-18	-8.089105902533574e-20	-1.631821804957449e-28	2.461105517729404e-19	2.918822965530601e-15	5.094309977493814e-17	-1.034913634343778e-20	1.418033722708124e-24	5.865303044000869e-18	6.369094154348843e-28	3.20403451917114e-25	-6.10451394901857e-24	8674.982829232289	-1282.829175014042	4692.227729594524	-1023.104442966539	5174.069326718347	-9.064055501779406e-19	-1.57305231133449e-17	-4365.196978555797	-1426.385467771498	4054.526277549124	186.9925175919531	4495.508052991887	2.841200193880202e-18	-2.450277123587077e-19
15.21666666666667	0	0	0	0	0.93	0	0	0	0	0	0	0	0	0	0	0	0	0	0	0	0	0	0	0	0	8674.847703948366	-1283.419053415033	4692.31761026113	-1023.596741121243	5173.254095956885	0	0	-4365.148590606923	-1427.167543931615	4053.638280897511	188.9239549238538	4494.085993352701	0	0
15.23333333333333	0	0	0	0	0.93	0	0	0	0	0	4.649966121427829e-41	0	0	0	0	0	0	0	0	0	0	0	0	0	0	8674.886199325254	-1283.951301874783	4692.25631460162	-1023.845000962301	5172.655037074064	0	0	-4365.116261071004	-1427.910209983125	4052.863363724577	190.7340404020763	4492.806375988655	0	0
15.25	0	0	0	0	0.93	0	0	0	0	4.173797860087813e-39	-4.085603620776555e-41	0	0	0	0	0	0	0	-3.082499855642476e-40	0	0	0	0	0	0	8675.029121570953	-1284.477697509737	4692.09712960379	-1023.888364656571	5172.241151082538	0	0	-4365.106830490065	-1428.634059795576	4052.22608273032	192.432213829317	4491.703377302379	0	0
15.26666666666667	9.314667193552662e-27	4.795881795353336e-20	1.494785919983304e-27	3.448048424599703e-25	0.93	-5.129747323637417e-23	-4.525978137649089e-34	5.593793404137932e-22	-7.939964794774929e-32	9.240671609643446e-16	1.612757165581053e-17	4.169171332477153e-21	1.600336367301717e-20	-2.252265668969786e-18	-2.438235834011667e-21	-1.376888125444147e-30	4.580802295835002e-22	9.217722020090256e-16	1.608797329962433e-17	3.666916652672956e-20	2.318433249310927e-26	4.305973888090685e-19	-1.354335593997563e-28	-2.672272983011641e-25	3.998992917943716e-25	8675.178327022266	-1285.023424293056	4691.962660907775	-1023.94760787712	5171.859169543821	-4.780831885068542e-22	2.121099187567496e-18	-4365.133560195909	-1429.318864890827	4051.631439683418	194.0137655900411	4490.677524060663	1.289423412083648e-22	-1.163813715513791e-19
15.28333333333333	0	0	0	0	0.93	0	0	0	0	0	0	0	0	0	0	0	0	0	0	0	0	0	0	0	0	8675.153805820821	-1285.657445864735	4692.015478308575	-1024.182173206426	5171.273990408977	0	0	-4365.195111614104	-1430.059335660706	4050.968497647417	195.7230650519425	4489.520623935376	0	0
15.3	0	0	0	0	0.93	0	0	0	0	0	0	0	0	0	0	0	0	0	0	0	0	0	0	0	0	8674.934502469368	-1286.359135395902	4692.319508790523	-1024.667687362015	5170.479633763942	0	0	-4365.283619603761	-1430.76554708356	4050.359673374024	197.3139801526031	4488.442495587231	0	0
15.31666666666667	0	0	0	0	0.93	0	0	0	0	0	0	0	0	0	0	0	0	0	0	0	0	0	0	0	0	8674.543115121822	-1287.13602426285	4692.806127272055	-1025.353037335227	5169.508515103249	0	0	-4365.389192387382	-1431.435668107432	4049.843745934103	198.8063987714843	4487.482813344778	0	0
15.33333333333333	0	0	0	0	0.93	0	0	0	0	0	0	0	0	0	0	0	0	0	0	0	0	0	0	0	0	8674.098935229045	-1287.898671025294	4693.369006898167	-1026.110600076981	5168.45724154564	0	0	-4365.545835877808	-1432.175929223862	4049.201449958046	200.4744781678255	4486.332823903356	0	0
15.35	2.943530440269657e-25	-2.217344125846449e-25	-5.576453320182612e-25	7.031422387760442e-27	0.93	-1.140208935717632e-26	-5.38806921148701e-34	-1.379345718140675e-33	-3.184539082141803e-25	9.306770426631101e-16	1.624343034054397e-17	7.21183001782405e-18	-1.912109958681831e-20	-8.585189919920354e-19	-1.463373358270406e-22	2.179940186612415e-16	-1.87344033331846e-15	9.306769701417355e-16	1.624337717129687e-17	2.973035499517741e-18	-5.408602966830911e-21	-6.540503026912183e-19	1.584265768657652e-20	3.327616014461909e-16	-9.470234906706658e-17	8673.823033505727	-1288.563482215306	4693.751419294188	-1026.633882806246	5167.624705649529	-2.623491754708354e-20	2.294996522087258e-18	-4365.792214350153	-1433.064074975943	4048.344112599789	202.4897887066482	4484.806824920181	-4.901424451526843e-20	3.033781199577452e-25
15.36666666666667	4.527818205768803e-28	-9.58819467053975e-19	1.528981714952892e-28	-3.198210498767631e-23	0.93	8.311728638872252e-28	2.526441800416073e-29	-2.234206109082399e-23	1.138730576512611e-22	1.520999920651686e-14	2.654645623191859e-16	-1.09082764107899e-23	-1.319732644107696e-22	5.212729049322653e-21	-4.991644496279376e-23	-1.940302976918928e-18	6.883757835770392e-18	1.521069369912116e-14	2.654766868747917e-16	2.169804024334608e-23	-6.07803891702368e-23	7.965272802164627e-21	-1.13321977359183e-17	4.815602941840705e-18	-2.156023365025796e-18	8673.804060705424	-1289.125259012018	4693.822997515579	-1026.869344869657	5167.099059400963	-1.535685736928959e-17	-5.693194688021829e-19	-4366.074507147821	-1433.951994493334	4047.526667981101	204.4370808366407	4483.33283810389	-2.443632202535647e-17	-1.82780712720056e-17
15.38333333333333	-2.415495774685734e-25	-3.676174215756362e-16	-7.555800083105284e-25	-3.900637063674188e-24	0.93	-7.702789003722317e-21	-1.603123008632153e-29	-2.708897093837251e-19	-3.017459461099655e-27	7.207275256511301e-16	1.257906833619806e-17	7.58419035814614e-20	-2.326147759781471e-18	-1.986103209562837e-17	-2.905795553462994e-17	3.297905695462438e-28	8.712816402934219e-18	7.26626533222185e-16	1.268221037937212e-17	1.026462857561509e-18	-3.720772041246779e-24	1.368436588566997e-16	-4.634331687064902e-25	2.93225631548962e-23	8.216173938216625e-25	8673.942377339297	-1289.58411438768	4693.709648890255	-1026.85851626858	5166.818171559472	-4.131766864616781e-19	5.397382039676577e-16	-4366.481741063361	-1434.948990863709	4046.440154413945	206.7794577383719	4481.454869973935	1.652441708256821e-21	1.651856571020566e-16
15.4	0	0	0	0	0.93	0	0	0	0	0	0	0	0	0	0	0	0	0	-1.232595164407831e-32	0	0	0	0	0	0	8673.948991307056	-1290.095806365005	4693.732677004839	-1026.997089832332	5166.436054183484	0	0	-4366.933634268298	-1435.900287077933	4045.442311384757	208.9988316114947	4479.650222999618	0	0
